<?xml version="1.0" standalone="no"?>
<!DOCTYPE svg PUBLIC "-//W3C//DTD SVG 20010904//EN"
 "http://www.w3.org/TR/2001/REC-SVG-20010904/DTD/svg10.dtd">
<svg version="1.0" xmlns="http://www.w3.org/2000/svg"
 width="73.000000pt" height="74.000000pt" viewBox="0 0 73.000000 74.000000"
 preserveAspectRatio="xMidYMid meet">

<g transform="translate(0.000000,74.000000) scale(0.100000,-0.100000)"
fill="#000000" stroke="none">
<path d="M342 607 c-63 -64 -75 -94 -47 -117 8 -7 25 -10 38 -6 32 8 120 -85
111 -118 -7 -28 27 -60 54 -52 23 8 142 129 142 145 0 22 -40 52 -61 46 -14
-5 -32 6 -69 41 -40 38 -49 51 -44 71 4 13 1 30 -6 38 -24 29 -54 16 -118 -48z"/>
<path d="M330 405 c-16 -17 -30 -23 -43 -19 -15 5 -36 -10 -88 -62 -38 -38
-69 -73 -69 -79 0 -16 64 -75 81 -75 8 0 43 29 78 64 47 48 62 69 59 84 -4 14
4 29 23 48 27 26 28 29 12 46 -21 23 -25 23 -53 -7z"/>
</g>
</svg>
